<svg xmlns="http://www.w3.org/2000/svg" viewBox="0 0 512 512">
  <defs>
    <linearGradient id="grad1" x1="0%" y1="0%" x2="100%" y2="100%">
      <stop offset="0%" style="stop-color:#3b82f6;stop-opacity:1" />
      <stop offset="100%" style="stop-color:#2563eb;stop-opacity:1" />
    </linearGradient>
  </defs>
  <rect width="512" height="512" rx="120" fill="url(#grad1)"/>
  <path d="M256 120c-44.2 0-80 35.8-80 80s35.8 80 80 80 80-35.8 80-80-35.8-80-80-80z" fill="white" opacity="0.2"/>
  <path d="M120 380c0-60 40-100 136-100s136 40 136 100" stroke="white" stroke-width="30" stroke-linecap="round" fill="none" opacity="0.3"/>
  <path d="M160 180c0-10 10-50 96-50s96 40 96 50v180c0 10-10 50-96 50s-96-40-96-50V180z" fill="white"/>
  <path d="M256 130v250" stroke="#2563eb" stroke-width="4" stroke-linecap="round" opacity="0.2"/>
  <circle cx="256" cy="210" r="40" fill="#2563eb" opacity="0.1"/>
  <text x="256" y="470" font-family="Arial, sans-serif" font-size="40" font-weight="bold" fill="white" text-anchor="middle">QURAN LIFE</text>
</svg>